<svg xmlns="http://www.w3.org/2000/svg" viewBox="-4 -4 47 63">
  <!-- Letter T in brick cells — 5×7 grid, 7px cells, 1px gaps -->
  <!-- Top bar: row 0 cols 0–4 -->
  <rect x="0"  y="0" width="7" height="7" rx="1.5" fill="#60A5FA"/>
  <rect x="0"  y="0" width="7" height="2"  rx="1.5" fill="white" opacity=".3"/>
  <circle cx="3.5"  cy="3.5" r="1.8" fill="white" opacity=".45"/>
  <rect x="8"  y="0" width="7" height="7" rx="1.5" fill="#60A5FA"/>
  <rect x="8"  y="0" width="7" height="2"  rx="1.5" fill="white" opacity=".3"/>
  <circle cx="11.5" cy="3.5" r="1.8" fill="white" opacity=".45"/>
  <rect x="16" y="0" width="7" height="7" rx="1.5" fill="#FACC15"/>
  <rect x="16" y="0" width="7" height="2"  rx="1.5" fill="white" opacity=".35"/>
  <circle cx="19.5" cy="3.5" r="1.8" fill="white" opacity=".5"/>
  <rect x="24" y="0" width="7" height="7" rx="1.5" fill="#60A5FA"/>
  <rect x="24" y="0" width="7" height="2"  rx="1.5" fill="white" opacity=".3"/>
  <circle cx="27.5" cy="3.5" r="1.8" fill="white" opacity=".45"/>
  <rect x="32" y="0" width="7" height="7" rx="1.5" fill="#60A5FA"/>
  <rect x="32" y="0" width="7" height="2"  rx="1.5" fill="white" opacity=".3"/>
  <circle cx="35.5" cy="3.5" r="1.8" fill="white" opacity=".45"/>
  <!-- Stem: col 2 rows 1–6 -->
  <rect x="16" y="8"  width="7" height="7" rx="1.5" fill="#FACC15"/>
  <circle cx="19.5" cy="11.5" r="1.8" fill="white" opacity=".5"/>
  <rect x="16" y="16" width="7" height="7" rx="1.5" fill="#FACC15"/>
  <circle cx="19.5" cy="19.5" r="1.8" fill="white" opacity=".5"/>
  <rect x="16" y="24" width="7" height="7" rx="1.5" fill="#FACC15"/>
  <circle cx="19.5" cy="27.5" r="1.8" fill="white" opacity=".5"/>
  <rect x="16" y="32" width="7" height="7" rx="1.5" fill="#FACC15"/>
  <circle cx="19.5" cy="35.5" r="1.8" fill="white" opacity=".5"/>
  <rect x="16" y="40" width="7" height="7" rx="1.5" fill="#FACC15"/>
  <circle cx="19.5" cy="43.5" r="1.8" fill="white" opacity=".5"/>
  <rect x="16" y="48" width="7" height="7" rx="1.5" fill="#FACC15"/>
  <circle cx="19.5" cy="51.5" r="1.8" fill="white" opacity=".5"/>
</svg>
