<svg xmlns="http://www.w3.org/2000/svg" viewBox="-2 -2 50 70">
  <defs>
    <radialGradient id="g" cx="35%" cy="30%" r="65%">
      <stop offset="0" stop-color="white" stop-opacity=".55"/>
      <stop offset="1" stop-color="black" stop-opacity="0"/>
    </radialGradient>
  </defs>
  <!-- top bar -->
  <circle cx="2"  cy="2"  r="5" fill="#2563EB"/><circle cx="2"  cy="2"  r="5" fill="url(#g)"/>
  <circle cx="12" cy="2"  r="5" fill="#2563EB"/><circle cx="12" cy="2"  r="5" fill="url(#g)"/>
  <circle cx="22" cy="2"  r="5" fill="#FACC15"/><circle cx="22" cy="2"  r="5" fill="url(#g)"/>
  <circle cx="32" cy="2"  r="5" fill="#2563EB"/><circle cx="32" cy="2"  r="5" fill="url(#g)"/>
  <circle cx="42" cy="2"  r="5" fill="#2563EB"/><circle cx="42" cy="2"  r="5" fill="url(#g)"/>
  <!-- stem -->
  <circle cx="22" cy="12" r="5" fill="#FACC15"/><circle cx="22" cy="12" r="5" fill="url(#g)"/>
  <circle cx="22" cy="22" r="5" fill="#FACC15"/><circle cx="22" cy="22" r="5" fill="url(#g)"/>
  <circle cx="22" cy="32" r="5" fill="#FACC15"/><circle cx="22" cy="32" r="5" fill="url(#g)"/>
  <circle cx="22" cy="42" r="5" fill="#FACC15"/><circle cx="22" cy="42" r="5" fill="url(#g)"/>
  <circle cx="22" cy="52" r="5" fill="#FACC15"/><circle cx="22" cy="52" r="5" fill="url(#g)"/>
  <circle cx="22" cy="62" r="5" fill="#FACC15"/><circle cx="22" cy="62" r="5" fill="url(#g)"/>
</svg>
